<svg xmlns="http://www.w3.org/2000/svg" viewBox="0 0 1600 900" role="img" aria-labelledby="title desc">
  <title id="title">Pilates Pose Scene</title>
  <desc id="desc">Soft-tone illustration representing pilates movement pose.</desc>
  <defs>
    <linearGradient id="bg2" x1="0" y1="0" x2="0" y2="1">
      <stop offset="0%" stop-color="#ede4d8"/>
      <stop offset="100%" stop-color="#ccb49a"/>
    </linearGradient>
    <linearGradient id="floor" x1="0" y1="0" x2="1" y2="0">
      <stop offset="0%" stop-color="#9e7d61"/>
      <stop offset="100%" stop-color="#7f634d"/>
    </linearGradient>
  </defs>
  <rect width="1600" height="900" fill="url(#bg2)"/>
  <rect x="0" y="690" width="1600" height="210" fill="url(#floor)" opacity="0.42"/>
  <ellipse cx="820" cy="690" rx="510" ry="70" fill="#7e6048" opacity="0.28"/>
  <rect x="540" y="640" width="560" height="30" rx="15" fill="#8b6d53"/>
  <circle cx="760" cy="395" r="52" fill="#7f6048"/>
  <rect x="705" y="445" width="210" height="70" rx="35" fill="#6f523d" transform="rotate(-10 705 445)"/>
  <rect x="870" y="470" width="250" height="55" rx="27" fill="#6f523d" transform="rotate(18 870 470)"/>
  <rect x="610" y="505" width="220" height="52" rx="26" fill="#6f523d" transform="rotate(-32 610 505)"/>
  <rect x="650" y="560" width="240" height="50" rx="25" fill="#6f523d" transform="rotate(12 650 560)"/>
  <rect x="885" y="575" width="245" height="48" rx="24" fill="#6f523d" transform="rotate(-26 885 575)"/>
  <text x="104" y="128" font-family="Arial, sans-serif" font-size="42" letter-spacing="4" fill="#4c3b2e" opacity="0.72">ACADEMY MOVEMENT</text>
</svg>
